<svg width="859" height="170" viewBox="0 0 859 170" fill="none" xmlns="http://www.w3.org/2000/svg">
<path d="M60.783 157.576C48.7003 157.576 38.0623 155.212 28.869 150.484C19.807 145.756 12.7807 139.321 7.79 131.178C2.79933 122.904 0.304001 113.514 0.304001 103.007C0.304001 92.369 2.73367 82.9787 7.593 74.836C12.5837 66.562 19.3473 60.1267 27.884 55.53C36.4207 50.802 46.0737 48.438 56.843 48.438C67.2183 48.438 76.543 50.6707 84.817 55.136C93.2223 59.47 99.8547 65.774 104.714 74.048C109.573 82.1907 112.003 91.975 112.003 103.401C112.003 104.583 111.937 105.962 111.806 107.538C111.675 108.983 111.543 110.362 111.412 111.675H25.323V93.748H95.258L83.438 99.067C83.438 93.551 82.3217 88.7573 80.089 84.686C77.8563 80.6147 74.77 77.4627 70.83 75.23C66.89 72.866 62.2933 71.684 57.04 71.684C51.7867 71.684 47.1243 72.866 43.053 75.23C39.113 77.4627 36.0267 80.6803 33.794 84.883C31.5613 88.9543 30.445 93.8137 30.445 99.461V104.189C30.445 109.968 31.6927 115.09 34.188 119.555C36.8147 123.889 40.4263 127.238 45.023 129.602C49.751 131.835 55.267 132.951 61.571 132.951C67.2183 132.951 72.1433 132.097 76.346 130.39C80.68 128.683 84.62 126.122 88.166 122.707L104.517 140.437C99.6577 145.953 93.5507 150.221 86.196 153.242C78.8413 156.131 70.3703 157.576 60.783 157.576Z" fill="#00D9FF"/>
<path d="M196.882 48.438C205.288 48.438 212.774 50.1453 219.34 53.56C226.038 56.8433 231.292 61.9653 235.1 68.926C238.909 75.7553 240.813 84.5547 240.813 95.324V156H210.081V100.052C210.081 91.5153 208.177 85.2113 204.368 81.14C200.691 77.0687 195.438 75.033 188.608 75.033C183.749 75.033 179.349 76.0837 175.409 78.185C171.601 80.155 168.58 83.2413 166.347 87.444C164.246 91.6467 163.195 97.0313 163.195 103.598V156H132.463V50.014H161.816V79.367L156.3 70.502C160.109 63.41 165.559 57.9597 172.651 54.151C179.743 50.3423 187.82 48.438 196.882 48.438Z" fill="#00D9FF"/>
<path d="M304.327 157.576C295.265 157.576 286.532 156.525 278.126 154.424C269.852 152.191 263.286 149.433 258.426 146.15L268.67 124.086C273.53 127.107 279.243 129.602 285.809 131.572C292.507 133.411 299.074 134.33 305.509 134.33C312.601 134.33 317.592 133.476 320.481 131.769C323.502 130.062 325.012 127.698 325.012 124.677C325.012 122.182 323.83 120.343 321.466 119.161C319.234 117.848 316.213 116.863 312.404 116.206C308.596 115.549 304.393 114.893 299.796 114.236C295.331 113.579 290.8 112.726 286.203 111.675C281.607 110.493 277.404 108.786 273.595 106.553C269.787 104.32 266.7 101.3 264.336 97.491C262.104 93.6823 260.987 88.7573 260.987 82.716C260.987 76.018 262.892 70.108 266.7 64.986C270.64 59.864 276.288 55.8583 283.642 52.969C290.997 49.9483 299.796 48.438 310.04 48.438C317.264 48.438 324.618 49.226 332.104 50.802C339.59 52.378 345.829 54.6763 350.819 57.697L340.575 79.564C335.453 76.5433 330.266 74.5077 325.012 73.457C319.89 72.275 314.9 71.684 310.04 71.684C303.211 71.684 298.22 72.6033 295.068 74.442C291.916 76.2807 290.34 78.6447 290.34 81.534C290.34 84.1607 291.457 86.1307 293.689 87.444C296.053 88.7573 299.14 89.808 302.948 90.596C306.757 91.384 310.894 92.1063 315.359 92.763C319.956 93.2883 324.553 94.142 329.149 95.324C333.746 96.506 337.883 98.2133 341.56 100.446C345.369 102.547 348.455 105.502 350.819 109.311C353.183 112.988 354.365 117.848 354.365 123.889C354.365 130.456 352.395 136.3 348.455 141.422C344.515 146.413 338.802 150.353 331.316 153.242C323.962 156.131 314.965 157.576 304.327 157.576Z" fill="#00D9FF"/>
<path d="M438.337 156V135.315L436.367 130.784V93.748C436.367 87.1813 434.331 82.0593 430.26 78.382C426.32 74.7047 420.213 72.866 411.939 72.866C406.291 72.866 400.71 73.7853 395.194 75.624C389.809 77.3313 385.212 79.6953 381.404 82.716L370.372 61.243C376.15 57.1717 383.111 54.0197 391.254 51.787C399.396 49.5543 407.67 48.438 416.076 48.438C432.23 48.438 444.772 52.2467 453.703 59.864C462.633 67.4813 467.099 79.367 467.099 95.521V156H438.337ZM406.029 157.576C397.755 157.576 390.663 156.197 384.753 153.439C378.843 150.55 374.312 146.675 371.16 141.816C368.008 136.957 366.432 131.506 366.432 125.465C366.432 119.161 367.942 113.645 370.963 108.917C374.115 104.189 379.04 100.512 385.738 97.885C392.436 95.127 401.169 93.748 411.939 93.748H440.11V111.675H415.288C408.064 111.675 403.074 112.857 400.316 115.221C397.689 117.585 396.376 120.54 396.376 124.086C396.376 128.026 397.886 131.178 400.907 133.542C404.059 135.775 408.327 136.891 413.712 136.891C418.834 136.891 423.43 135.709 427.502 133.345C431.573 130.85 434.528 127.238 436.367 122.51L441.095 136.694C438.862 143.523 434.791 148.711 428.881 152.257C422.971 155.803 415.353 157.576 406.029 157.576Z" fill="#00D9FF"/>
<path d="M494.913 156V50.014H525.645V156H494.913ZM510.279 35.239C504.631 35.239 500.035 33.5973 496.489 30.314C492.943 27.0307 491.17 22.9593 491.17 18.1C491.17 13.2407 492.943 9.16934 496.489 5.88601C500.035 2.60267 504.631 0.960999 510.279 0.960999C515.926 0.960999 520.523 2.537 524.069 5.68901C527.615 8.70968 529.387 12.6497 529.387 17.509C529.387 22.631 527.615 26.8993 524.069 30.314C520.654 33.5973 516.057 35.239 510.279 35.239Z" fill="#00D9FF"/>
<path d="M591.737 144.439L604.5 122.333H563.209C569.462 133.148 579.703 141.084 591.737 144.439ZM558.335 110.417H583.86L563.209 74.6607C559.018 81.9057 556.819 90.1303 556.833 98.5C556.833 102.611 557.358 106.603 558.335 110.417ZM571.104 64.4898L583.854 86.5833L604.5 50.8333C592.005 50.817 580.007 55.7234 571.104 64.4898ZM617.263 52.5612L604.5 74.6667H645.791C639.538 63.8515 629.297 55.9162 617.263 52.5612ZM650.665 86.5833H625.14L645.785 122.339C649.978 115.095 652.18 106.87 652.167 98.5C652.167 94.3887 651.642 90.3967 650.665 86.5833ZM637.896 132.51L625.146 110.417L604.5 146.167C616.995 146.183 628.993 141.277 637.896 132.51ZM604.5 158.083C571.592 158.083 544.917 131.408 544.917 98.5C544.917 65.5921 571.592 38.9167 604.5 38.9167C637.408 38.9167 664.083 65.5921 664.083 98.5C664.083 131.408 637.408 158.083 604.5 158.083ZM611.382 86.5833H597.618L590.742 98.5L597.618 110.417H611.382L618.258 98.5L611.382 86.5833Z" fill="#00D9FF"/>
<path d="M805.948 135.028H759.692L752.832 156H707.164L757.928 17.232H808.104L858.672 156H812.808L805.948 135.028ZM795.364 102.296L782.82 63.684L770.276 102.296H795.364Z" fill="white"/>
<path d="M697.312 17.232V156H653.8V17.232H697.312Z" fill="white"/>
</svg>
