<svg width="512" height="512" viewBox="0 0 512 512" fill="none" xmlns="http://www.w3.org/2000/svg">
<rect width="512" height="512" fill="#0B1420"/>
<path d="M58.4107 293.385C51.9356 293.385 46.2347 292.127 41.308 289.609C36.4517 287.092 32.6863 283.666 30.0118 279.33C27.3373 274.925 26 269.925 26 264.331C26 258.668 27.3021 253.668 29.9062 249.333C32.5807 244.927 36.2053 241.501 40.7801 239.054C45.3549 236.536 50.528 235.278 56.2993 235.278C61.8594 235.278 66.8565 236.467 71.2906 238.844C75.795 241.151 79.3493 244.508 81.9534 248.913C84.5575 253.248 85.8596 258.458 85.8596 264.541C85.8596 265.171 85.8244 265.905 85.754 266.744C85.6836 267.513 85.6132 268.247 85.5429 268.947H39.4077V259.402H76.8859L70.5516 262.234C70.5516 259.297 69.9533 256.745 68.7568 254.577C67.5603 252.409 65.9064 250.731 63.7949 249.542C61.6835 248.284 59.2201 247.654 56.4049 247.654C53.5896 247.654 51.091 248.284 48.9092 249.542C46.7978 250.731 45.1438 252.444 43.9473 254.682C42.7508 256.85 42.1526 259.437 42.1526 262.444V264.961C42.1526 268.038 42.8212 270.765 44.1585 273.142C45.5661 275.45 47.5016 277.233 49.9649 278.491C52.4987 279.68 55.4547 280.274 58.833 280.274C61.8594 280.274 64.4987 279.82 66.751 278.911C69.0736 278.002 71.185 276.638 73.0853 274.82L81.8478 284.26C79.2437 287.197 75.971 289.469 72.0296 291.078C68.0882 292.616 63.5486 293.385 58.4107 293.385Z" fill="#00D9FF"/>
<path d="M131.346 235.278C135.851 235.278 139.863 236.187 143.382 238.005C146.971 239.753 149.786 242.48 151.827 246.186C153.869 249.822 154.889 254.507 154.889 260.241V292.546H138.42V262.758C138.42 258.213 137.399 254.857 135.358 252.689C133.388 250.521 130.572 249.438 126.912 249.438C124.308 249.438 121.95 249.997 119.839 251.116C117.798 252.165 116.179 253.808 114.983 256.045C113.857 258.283 113.294 261.15 113.294 264.646V292.546H96.8243V236.117H112.555V251.745L109.599 247.025C111.64 243.249 114.56 240.347 118.361 238.32C122.162 236.292 126.49 235.278 131.346 235.278Z" fill="#00D9FF"/>
<path d="M188.926 293.385C184.07 293.385 179.39 292.826 174.885 291.707C170.451 290.518 166.932 289.05 164.328 287.302L169.818 275.554C172.422 277.163 175.483 278.491 179.002 279.54C182.592 280.519 186.111 281.009 189.56 281.009C193.36 281.009 196.035 280.554 197.583 279.645C199.202 278.736 200.011 277.477 200.011 275.869C200.011 274.54 199.378 273.562 198.111 272.932C196.915 272.233 195.296 271.709 193.255 271.359C191.214 271.009 188.961 270.66 186.498 270.31C184.105 269.96 181.677 269.506 179.214 268.947C176.75 268.317 174.498 267.408 172.457 266.219C170.416 265.031 168.762 263.422 167.495 261.395C166.299 259.367 165.7 256.745 165.7 253.528C165.7 249.962 166.721 246.815 168.762 244.088C170.873 241.361 173.9 239.229 177.841 237.69C181.783 236.082 186.498 235.278 191.988 235.278C195.859 235.278 199.8 235.697 203.812 236.536C207.824 237.376 211.167 238.599 213.841 240.207L208.352 251.85C205.607 250.242 202.827 249.158 200.011 248.598C197.267 247.969 194.592 247.654 191.988 247.654C188.328 247.654 185.654 248.144 183.964 249.123C182.275 250.102 181.431 251.36 181.431 252.899C181.431 254.297 182.029 255.346 183.225 256.045C184.492 256.745 186.146 257.304 188.187 257.724C190.228 258.143 192.445 258.528 194.838 258.877C197.302 259.157 199.765 259.612 202.228 260.241C204.692 260.87 206.909 261.779 208.879 262.968C210.921 264.087 212.575 265.66 213.841 267.688C215.108 269.646 215.742 272.233 215.742 275.45C215.742 278.946 214.686 282.057 212.575 284.784C210.463 287.442 207.401 289.539 203.39 291.078C199.448 292.616 194.627 293.385 188.926 293.385Z" fill="#00D9FF"/>
<path d="M260.742 292.546V281.533L259.686 279.121V259.402C259.686 255.906 258.595 253.179 256.413 251.221C254.302 249.263 251.029 248.284 246.595 248.284C243.569 248.284 240.578 248.773 237.622 249.752C234.736 250.661 232.273 251.92 230.232 253.528L224.319 242.095C227.416 239.928 231.146 238.25 235.51 237.061C239.874 235.872 244.308 235.278 248.812 235.278C257.469 235.278 264.191 237.306 268.977 241.361C273.763 245.417 276.156 251.745 276.156 260.346V292.546H260.742ZM243.428 293.385C238.994 293.385 235.193 292.651 232.026 291.183C228.859 289.644 226.431 287.581 224.742 284.994C223.053 282.407 222.208 279.505 222.208 276.289C222.208 272.932 223.017 269.995 224.636 267.478C226.325 264.961 228.965 263.003 232.554 261.604C236.144 260.136 240.824 259.402 246.595 259.402H261.692V268.947H248.39C244.519 268.947 241.844 269.576 240.366 270.834C238.959 272.093 238.255 273.666 238.255 275.554C238.255 277.652 239.064 279.33 240.683 280.589C242.372 281.778 244.66 282.372 247.545 282.372C250.29 282.372 252.754 281.743 254.935 280.484C257.117 279.156 258.701 277.233 259.686 274.715L262.22 282.267C261.023 285.903 258.842 288.665 255.674 290.553C252.507 292.441 248.425 293.385 243.428 293.385Z" fill="#00D9FF"/>
<path d="M291.061 292.546V236.117H307.53V292.546H291.061ZM299.296 228.25C296.269 228.25 293.806 227.376 291.906 225.628C290.005 223.88 289.055 221.712 289.055 219.125C289.055 216.538 290.005 214.37 291.906 212.622C293.806 210.874 296.269 210 299.296 210C302.322 210 304.785 210.839 306.686 212.517C308.586 214.126 309.536 216.223 309.536 218.811C309.536 221.538 308.586 223.81 306.686 225.628C304.856 227.376 302.392 228.25 299.296 228.25Z" fill="#00D9FF"/>
<path d="M342.949 286.391L349.789 274.621H327.661C331.012 280.379 336.5 284.604 342.949 286.391ZM325.049 268.277H338.728L327.661 249.239C325.415 253.097 324.237 257.476 324.244 261.932C324.244 264.121 324.525 266.246 325.049 268.277ZM331.892 243.824L338.725 255.587L349.789 236.553C343.093 236.544 336.663 239.157 331.892 243.824ZM356.629 237.473L349.789 249.242H371.917C368.566 243.484 363.078 239.259 356.629 237.473ZM374.529 255.587H360.85L371.914 274.624C374.161 270.767 375.341 266.388 375.334 261.932C375.334 259.743 375.053 257.617 374.529 255.587ZM367.686 280.04L360.853 268.277L349.789 287.311C356.485 287.319 362.915 284.707 367.686 280.04ZM349.789 293.655C332.154 293.655 317.858 279.453 317.858 261.932C317.858 244.411 332.154 230.208 349.789 230.208C367.424 230.208 381.72 244.411 381.72 261.932C381.72 279.453 367.424 293.655 349.789 293.655ZM353.477 255.587H346.101L342.416 261.932L346.101 268.277H353.477L357.162 261.932L353.477 255.587Z" fill="#00D9FF"/>
<path d="M457.745 281.38H432.957L429.28 292.546H404.807L432.011 218.663H458.901L486 292.546H461.422L457.745 281.38ZM452.073 263.953L445.351 243.395L438.629 263.953H452.073Z" fill="white"/>
<path d="M399.527 218.663V292.546H376.209V218.663H399.527Z" fill="white"/>
</svg>
