<svg width="256" height="256" viewBox="0 0 256 256" fill="none" xmlns="http://www.w3.org/2000/svg">
<rect width="256" height="256" fill="#0B1420"/>
<mask id="mask0_6_35" style="mask-type:alpha" maskUnits="userSpaceOnUse" x="0" y="0" width="256" height="256">
<rect width="256" height="256" fill="#0B1420"/>
</mask>
<g mask="url(#mask0_6_35)">
<path d="M-323.007 177.401C-331.396 177.401 -338.783 175.765 -345.166 172.492C-351.458 169.22 -356.337 164.765 -359.802 159.129C-363.267 153.403 -365 146.903 -365 139.631C-365 132.268 -363.313 125.768 -359.939 120.132C-356.474 114.406 -351.777 109.951 -345.85 106.77C-339.923 103.497 -333.22 101.861 -325.743 101.861C-318.539 101.861 -312.064 103.406 -306.319 106.497C-300.483 109.497 -295.878 113.86 -292.504 119.587C-289.13 125.223 -287.443 131.995 -287.443 139.904C-287.443 140.722 -287.488 141.676 -287.58 142.767C-287.671 143.767 -287.762 144.721 -287.853 145.63H-347.628V133.222H-299.07L-307.277 136.904C-307.277 133.086 -308.052 129.768 -309.602 126.95C-311.152 124.132 -313.295 121.95 -316.031 120.405C-318.767 118.769 -321.958 117.951 -325.606 117.951C-329.253 117.951 -332.491 118.769 -335.318 120.405C-338.053 121.95 -340.196 124.178 -341.747 127.086C-343.297 129.904 -344.072 133.268 -344.072 137.177V140.449C-344.072 144.449 -343.206 147.994 -341.473 151.085C-339.649 154.084 -337.141 156.402 -333.95 158.039C-330.667 159.584 -326.837 160.357 -322.46 160.357C-318.539 160.357 -315.119 159.766 -312.201 158.584C-309.192 157.402 -306.456 155.63 -303.994 153.266L-292.641 165.538C-296.015 169.356 -300.255 172.31 -305.362 174.401C-310.468 176.401 -316.35 177.401 -323.007 177.401Z" fill="#00D9FF"/>
<path d="M-228.508 101.861C-222.671 101.861 -217.474 103.043 -212.914 105.406C-208.263 107.679 -204.616 111.224 -201.971 116.042C-199.327 120.769 -198.005 126.859 -198.005 134.313V176.31H-219.343V137.586C-219.343 131.677 -220.665 127.314 -223.31 124.496C-225.863 121.678 -229.511 120.269 -234.253 120.269C-237.627 120.269 -240.682 120.996 -243.417 122.45C-246.062 123.814 -248.159 125.95 -249.709 128.859C-251.168 131.768 -251.898 135.495 -251.898 140.04V176.31H-273.236V102.952H-252.855V123.269L-256.685 117.133C-254.041 112.224 -250.256 108.452 -245.332 105.815C-240.408 103.179 -234.8 101.861 -228.508 101.861Z" fill="#00D9FF"/>
<path d="M-153.904 177.401C-160.196 177.401 -166.26 176.674 -172.097 175.219C-177.842 173.674 -182.401 171.765 -185.775 169.492L-178.662 154.221C-175.288 156.311 -171.321 158.039 -166.762 159.402C-162.111 160.675 -157.552 161.311 -153.083 161.311C-148.159 161.311 -144.694 160.72 -142.688 159.539C-140.59 158.357 -139.542 156.721 -139.542 154.63C-139.542 152.903 -140.362 151.63 -142.004 150.812C-143.554 149.903 -145.651 149.221 -148.296 148.767C-150.94 148.312 -153.859 147.858 -157.05 147.403C-160.151 146.949 -163.297 146.358 -166.488 145.63C-169.68 144.812 -172.598 143.631 -175.243 142.085C-177.887 140.54 -180.03 138.449 -181.672 135.813C-183.222 133.177 -183.997 129.768 -183.997 125.587C-183.997 120.951 -182.675 116.86 -180.03 113.315C-177.294 109.77 -173.373 106.997 -168.267 104.997C-163.16 102.906 -157.05 101.861 -149.937 101.861C-144.922 101.861 -139.815 102.407 -134.617 103.497C-129.42 104.588 -125.088 106.179 -121.623 108.27L-128.736 123.405C-132.292 121.314 -135.894 119.905 -139.542 119.178C-143.098 118.36 -146.563 117.951 -149.937 117.951C-154.679 117.951 -158.145 118.587 -160.333 119.86C-162.522 121.132 -163.616 122.769 -163.616 124.768C-163.616 126.586 -162.841 127.95 -161.291 128.859C-159.649 129.768 -157.506 130.495 -154.862 131.041C-152.217 131.586 -149.345 132.086 -146.244 132.541C-143.053 132.904 -139.861 133.495 -136.669 134.313C-133.478 135.131 -130.605 136.313 -128.052 137.858C-125.407 139.313 -123.264 141.358 -121.623 143.994C-119.981 146.539 -119.161 149.903 -119.161 154.084C-119.161 158.629 -120.529 162.675 -123.264 166.22C-126 169.674 -129.967 172.401 -135.165 174.401C-140.271 176.401 -146.518 177.401 -153.904 177.401Z" fill="#00D9FF"/>
<path d="M-60.8561 176.31V161.993L-62.2239 158.857V133.222C-62.2239 128.677 -63.6374 125.132 -66.4643 122.587C-69.2 120.042 -73.4403 118.769 -79.1853 118.769C-83.1065 118.769 -86.982 119.405 -90.812 120.678C-94.5508 121.86 -97.7425 123.496 -100.387 125.587L-108.047 110.724C-104.035 107.906 -99.2015 105.724 -93.5477 104.179C-87.8939 102.634 -82.149 101.861 -76.3128 101.861C-65.0964 101.861 -56.3877 104.497 -50.1868 109.77C-43.9859 115.042 -40.8854 123.269 -40.8854 134.45V176.31H-60.8561ZM-83.2888 177.401C-89.0338 177.401 -93.9581 176.446 -98.0616 174.537C-102.165 172.538 -105.311 169.856 -107.5 166.493C-109.688 163.129 -110.783 159.357 -110.783 155.175C-110.783 150.812 -109.734 146.994 -107.637 143.722C-105.448 140.449 -102.028 137.904 -97.3777 136.086C-92.727 134.177 -86.6629 133.222 -79.1853 133.222H-59.625V145.63H-76.8599C-81.8754 145.63 -85.3406 146.449 -87.2556 148.085C-89.0794 149.721 -89.9913 151.766 -89.9913 154.221C-89.9913 156.948 -88.9426 159.129 -86.8453 160.766C-84.6567 162.311 -81.693 163.084 -77.9542 163.084C-74.3978 163.084 -71.2062 162.266 -68.3793 160.629C-65.5524 158.902 -63.5006 156.402 -62.2239 153.13L-58.9411 162.947C-60.4913 167.674 -63.3182 171.265 -67.4218 173.719C-71.5253 176.174 -76.8143 177.401 -83.2888 177.401Z" fill="#00D9FF"/>
<path d="M-21.5731 176.31V102.952H-0.234602V176.31H-21.5731ZM-10.9038 92.7255C-14.825 92.7255 -18.0167 91.5892 -20.4788 89.3166C-22.9409 87.0441 -24.172 84.2261 -24.172 80.8627C-24.172 77.4993 -22.9409 74.6814 -20.4788 72.4088C-18.0167 70.1363 -14.825 69 -10.9038 69C-6.98267 69 -3.79101 70.0908 -1.32888 72.2725C1.13326 74.3632 2.3643 77.0903 2.3643 80.4537C2.3643 83.9989 1.13326 86.9532 -1.32888 89.3166C-3.69982 91.5892 -6.89148 92.7255 -10.9038 92.7255Z" fill="#00D9FF"/>
<path d="M45.6563 168.308L54.518 153.008H25.8478C30.1898 160.493 37.3006 165.986 45.6563 168.308ZM22.4636 144.76H40.187L25.8478 120.011C22.9381 125.026 21.4109 130.718 21.4211 136.511C21.4211 139.357 21.7851 142.12 22.4636 144.76ZM31.3295 112.971L40.1829 128.263L54.518 103.519C45.8423 103.508 37.5114 106.904 31.3295 112.971ZM63.3797 104.715L54.518 120.015H83.1882C78.8462 112.53 71.7354 107.037 63.3797 104.715ZM86.5724 128.263H68.849L83.1841 153.012C86.0952 147.998 87.6239 142.305 87.6149 136.511C87.6149 133.666 87.2508 130.903 86.5724 128.263ZM77.7065 160.051L68.8531 144.76L54.518 169.504C63.1936 169.515 71.5245 166.119 77.7065 160.051ZM54.518 177.752C31.6687 177.752 13.1469 159.289 13.1469 136.511C13.1469 113.734 31.6687 95.2709 54.518 95.2709C77.3673 95.2709 95.8891 113.734 95.8891 136.511C95.8891 159.289 77.3673 177.752 54.518 177.752ZM59.2964 128.263H49.7396L44.9654 136.511L49.7396 144.76H59.2964L64.0706 136.511L59.2964 128.263Z" fill="#00D9FF"/>
<path d="M194.392 161.794H162.274L157.511 176.31H125.802L161.049 80.262H195.889L231 176.31H199.155L194.392 161.794ZM187.043 139.139L178.333 112.414L169.623 139.139H187.043Z" fill="white"/>
<path d="M118.961 80.262V176.31H88.749V80.262H118.961Z" fill="white"/>
<rect width="9" height="256" fill="#0B1420"/>
</g>
</svg>
